<?xml version="1.0" encoding="utf-8"?>
<!-- Generator: Adobe Illustrator 26.0.3, SVG Export Plug-In . SVG Version: 6.00 Build 0)  -->
<svg version="1.1" id="Layer_1" xmlns="http://www.w3.org/2000/svg" xmlns:xlink="http://www.w3.org/1999/xlink" x="0px" y="0px"
	 viewBox="0 0 1920 1080" style="enable-background:new 0 0 1920 1080;" xml:space="preserve">
<style type="text/css">
	.st0{fill:#FDFEFD;}
	.st1{fill:#15FE10;}
	.st2{fill:#1EFE19;}
</style>
<g>
	<path class="st0" d="M1459.91,540.5c0,164.97-0.01,329.94,0.09,494.91c0,3.75-0.84,4.59-4.59,4.59c-330.27-0.1-660.54-0.1-990.81,0
		c-3.75,0-4.59-0.84-4.59-4.59c0.1-330.27,0.1-660.54,0-990.82c0-3.75,0.84-4.59,4.59-4.59c330.27,0.1,660.54,0.1,990.81,0
		c3.75,0,4.6,0.84,4.59,4.59C1459.89,209.89,1459.91,375.2,1459.91,540.5z M766.94,118.25c2.58,1.56,4.78,0.96,6.85,0.96
		c146.79,0.03,293.57,0.05,440.36-0.06c3.82,0,5.11,0.78,4.84,4.79c-1.22,18.75-2.19,37.52-3.23,56.28
		c-1.29,23.44-2.56,46.87-3.84,70.31c-1.06,19.43-2.1,38.86-3.18,58.29c-1.26,22.77-2.56,45.54-3.8,68.31
		c-1.09,20.1-2.1,40.2-3.18,60.3c-1.27,23.76-2.55,47.53-3.85,71.29c-1.05,19.27-2.12,38.54-3.19,57.81
		c-1.26,22.76-2.55,45.53-3.79,68.29c-1.09,20.1-2.11,40.21-3.21,60.32c-1.58,28.91-3.21,57.82-4.8,86.72
		c-0.77,13.96-1.47,27.92-2.21,41.88c-1.26,23.59-2.49,47.19-3.81,70.78c-0.81,14.62-1.78,29.23-2.64,43.85
		c-0.48,8.14-0.92,16.29-1.26,24.44c-0.04,1.06-0.97,3.05,1.26,3.04c1.99-0.01,1.34-1.89,1.57-3.08c0.06-0.32,0.03-0.66,0.05-1
		c1.96-35.89,3.93-71.79,5.89-107.68c2.34-42.88,4.77-85.75,6.99-128.63c2.22-42.88,4.46-85.76,6.95-128.63
		c2.47-42.7,4.5-85.42,6.98-128.12c2.49-42.86,4.44-85.76,7.02-128.62c2.24-37.21,3.75-74.46,6.05-111.67
		c2.14-34.56,3.62-69.15,5.04-103.75c0.11-2.69,3.78-5.7,0.76-7.54c-2.09-1.27-5.64-0.07-8.55-0.07
		c-146.45,0.01-292.9,0-439.36,0.04C771.65,117.09,769.42,116.36,766.94,118.25z M1153.1,962.73c-1.73-2.57-3.9-1.93-5.88-1.93
		c-144.95-0.03-289.9-0.03-434.85-0.03c-11.22,0-11,0.01-10.26-11.18c1.47-22.25,2.76-44.52,3.97-66.78
		c1.12-20.61,1.95-41.24,3.08-61.85c1.22-22.27,2.71-44.52,3.92-66.79c1.12-20.61,1.95-41.24,3.07-61.85
		c1.58-29.08,3.36-58.16,4.98-87.24c1.09-19.61,1.99-39.22,3.07-58.83c1.25-22.61,2.65-45.21,3.89-67.81
		c1.11-20.27,2.01-40.55,3.12-60.82c1.22-22.28,2.64-44.54,3.85-66.82c1.11-20.44,1.83-40.9,3.14-61.32
		c1.54-23.93,2.9-47.86,3.95-71.81c0.6-13.64,1.28-27.27,2.07-40.9c1.16-19.93,2.47-39.86,3.67-59.79c0.06-1,0.75-2.57-0.99-2.8
		c-2.14-0.29-1.72,1.51-1.79,2.74c-1.38,26.74-2.73,53.49-4.12,80.23c-0.7,13.46-1.43,26.92-2.17,40.38
		c-1.27,23.08-2.56,46.16-3.82,69.24c-0.78,14.29-1.47,28.58-2.25,42.87c-1.22,22.26-2.52,44.51-3.74,66.77
		c-0.76,13.77-1.41,27.55-2.17,41.32c-1.59,28.91-3.24,57.82-4.82,86.73c-0.75,13.77-1.36,27.55-2.12,41.32
		c-1.59,28.91-3.27,57.81-4.86,86.72c-0.77,13.93-1.36,27.88-2.12,41.81c-1.6,29.08-3.28,58.15-4.88,87.23
		c-0.76,13.77-1.15,27.56-2.13,41.31c-1.74,24.58-2.89,49.19-3.95,73.81c-0.55,12.94-1.3,25.88-1.99,38.82
		c-0.14,2.57-0.7,5-4.48,7.27C849.11,962.73,1001.11,962.73,1153.1,962.73z M706.68,957.55c2.08-0.41,2.62-2.36,3.52-3.82
		c12.77-20.57,25.52-41.16,38.23-61.77c29.79-48.29,59.56-96.58,89.32-144.88c32.37-52.53,64.76-105.06,97.1-157.61
		c33.29-54.1,66.5-108.25,99.82-162.34c41.5-67.38,83.06-134.71,124.6-202.07c16.97-27.53,33.95-55.05,50.89-82.6
		c0.71-1.15,2.74-2.71,1.13-3.75c-1.92-1.23-2.37,1.48-3.38,2.58c-0.11,0.12-0.17,0.28-0.26,0.42
		c-32.28,52.38-64.56,104.77-96.84,157.15c-32.11,52.11-64.2,104.23-96.3,156.34c-34.71,56.34-69.45,112.66-104.15,169
		c-37.75,61.31-75.46,122.65-113.21,183.97c-29.83,48.45-59.69,96.88-89.51,145.33C706.93,954.67,705.26,955.67,706.68,957.55z
		 M1215.15,123.36c-0.68-0.47-1.35-0.93-2.03-1.4c-168.19,273-336.38,545.99-504.56,818.99c0.7,0.43,1.39,0.86,2.09,1.29
		C878.82,669.28,1046.98,396.32,1215.15,123.36z M774.38,148.89c0.3-1.57,0.52-3.06-1.06-3.14c-1.62-0.08-1.35,1.53-1.43,2.66
		c-1.96,26.87-3.92,53.75-5.88,80.62c-1.6,21.89-3.21,43.79-4.78,65.68c-3.11,43.49-6.23,86.97-9.27,130.47
		c-1.16,16.6-1.64,33.26-3.2,49.82c-3.25,34.48-4.86,69.07-7.66,103.57c-1.72,21.23-2.91,42.51-4.41,63.76
		c-1.83,25.9-3.75,51.79-5.6,77.68c-1.76,24.56-3.46,49.12-5.22,73.67c-2.44,34.02-4.9,68.05-7.38,102.07
		c-0.09,1.25-0.23,2.7,1.21,2.78c1.52,0.08,1.38-1.51,1.47-2.67c1.96-26.87,3.93-53.75,5.9-80.62c1.88-25.71,3.81-51.42,5.64-77.14
		c2.16-30.38,4.24-60.77,6.33-91.15c1.51-21.92,2.9-43.85,4.46-65.77c1.45-20.42,3.08-40.82,4.54-61.24
		c1.48-20.75,2.79-41.52,4.28-62.27c1.49-20.75,3.16-41.49,4.65-62.24c1.54-21.41,2.93-42.83,4.46-64.24
		c1.83-25.72,3.68-51.44,5.61-77.15c1.25-16.76,2.23-33.54,3.32-50.31C771.54,185.32,773.47,166.94,774.38,148.89z M1202.22,188.97
		c-0.06-0.01-0.11-0.01-0.17-0.02c0-1,0.1-2.01-0.02-2.99c-0.19-1.52,1.22-4.12-0.85-4.33c-2.32-0.24-1.43,2.54-1.54,3.95
		c-1.61,19.9-3.19,39.81-4.6,59.73c-1.83,25.9-3.41,51.81-5.26,77.71c-2.85,39.99-5.84,79.97-8.75,119.96
		c-1.68,23.05-3.31,46.11-4.95,69.16c-2.7,37.84-5.38,75.69-8.08,113.53c-1.96,27.38-3.96,54.76-5.91,82.14
		c-3.04,42.5-6.06,85-9.07,127.51c-1.32,18.6-2.56,37.2-3.9,55.79c-0.95,13.28-2.02,26.55-3,39.83c-0.09,1.22-0.74,3.06,1.14,3.3
		c1.92,0.25,1.68-1.56,1.77-2.85c1.98-27.55,3.99-55.1,5.94-82.66c2.5-35.2,4.97-70.4,7.42-105.6c1.57-22.58,2.83-45.19,4.71-67.75
		c1.67-20.08,3.04-40.16,4.29-60.27c1.25-20.26,3.08-40.49,4.51-60.74c1.5-21.24,2.45-42.53,4.33-63.74
		c1.85-20.89,3.14-41.81,4.66-62.71c1.53-21.07,2.82-42.16,4.33-63.23c1.87-26.22,3.81-52.43,5.82-78.64
		c1.29-16.77,2.29-33.55,3.23-50.34C1199.15,220.1,1200.87,204.54,1202.22,188.97z M1174.45,227.07c-0.28-1.36-1.28-1.43-1.85-0.92
		c-0.84,0.73-1.41,1.8-1.99,2.78c-21.57,36.75-43.14,73.49-64.67,110.26c-26.95,46.03-53.84,92.09-80.79,138.12
		c-18.68,31.92-37.44,63.8-56.13,95.71c-20.36,34.77-40.66,69.56-61.01,104.33c-15.99,27.33-32.01,54.65-48.04,81.96
		c-15,25.55-30.04,51.08-45.03,76.63c-14.36,24.48-28.7,48.98-43.01,73.5c-0.59,1.02-2.29,2.36-0.79,3.38
		c1.49,1.02,2.14-0.88,2.81-1.95c0.79-1.26,1.55-2.55,2.3-3.83c14.8-25.32,29.57-50.66,44.39-75.96
		c22.12-37.75,44.32-75.45,66.42-113.2c23.8-40.64,47.49-81.35,71.29-121.99c31.16-53.19,62.4-106.33,93.56-159.52
		c40.39-68.93,80.73-137.89,121.1-206.84C1173.53,228.67,1174.02,227.81,1174.45,227.07z M1149.6,166.59
		c-2.57,1.13-3.26,3.29-4.3,5.07c-14.72,25.18-29.34,50.42-44.09,75.58c-26.84,45.78-53.76,91.51-80.62,137.28
		c-22.15,37.75-44.28,75.52-66.38,113.31c-20.33,34.75-40.57,69.56-60.91,104.31c-24.46,41.78-49.01,83.51-73.48,125.28
		c-24.06,41.06-48.07,82.14-72.07,123.23c-0.57,0.98-2.53,2.12-0.82,3.23c1.49,0.97,2.14-0.97,2.86-1.99
		c0.48-0.67,0.82-1.44,1.23-2.16c25.12-42.94,50.22-85.91,75.38-128.83c31.51-53.76,63.1-107.47,94.61-161.22
		c41.34-70.52,82.64-141.05,123.95-211.59c34.44-58.81,68.86-117.64,103.27-176.47C1149.03,170.27,1150.47,169.08,1149.6,166.59z
		 M734.83,830.7c0.06,0.01,0.12,0.01,0.18,0.02c-0.03,0.67-0.13,1.34-0.08,2c0.1,1.2-1.07,3.14,0.74,3.42
		c2.12,0.32,1.22-1.83,1.42-2.95c0.39-2.12,0.73-4.26,0.94-6.41c2.06-21.19,4-42.39,6.15-63.57c2.55-25.14,5.34-50.26,7.88-75.41
		c2.81-27.8,5.37-55.62,8.17-83.41c2.56-25.47,5.36-50.92,7.93-76.39c2.1-20.84,3.93-41.71,6.03-62.55
		c2.56-25.3,5.33-50.59,7.91-75.89c2.19-21.5,4.21-43.03,6.36-64.54c1.83-18.36,3.79-36.72,5.58-55.08
		c1.81-18.54,3.38-37.11,5.26-55.64c2.08-20.52,4.4-41.01,6.54-61.52c0.13-1.27,1.1-3.57-1.11-3.62c-1.77-0.04-1.52,2.22-1.67,3.67
		c-1.02,9.42-2.09,18.84-3.03,28.26c-3,29.94-5.97,59.89-8.91,89.84c-2.79,28.46-5.13,56.98-8.37,85.39
		c-2.83,24.79-5.01,49.63-7.61,74.43c-2.24,21.33-3.73,42.75-6.27,64.04c-3,25.1-5.08,50.28-7.75,75.4
		c-2.96,27.77-5.45,55.6-8.24,83.39c-2.61,25.97-5.37,51.92-8.01,77.89c-1.44,14.23-2.69,28.47-4.13,42.7
		C738.81,793,736.8,811.85,734.83,830.7z M1185.61,243.79c-0.45-0.04-0.91-0.07-1.36-0.11c-0.43,2.56-1.01,5.1-1.27,7.68
		c-2.37,23.16-4.72,46.32-7.01,69.48c-2.11,21.35-4.06,42.72-6.31,64.05c-2.65,25.13-5.06,50.27-7.68,75.4
		c-2.19,21.01-4.01,42.05-6.14,63.07c-2.56,25.3-5.34,50.58-7.9,75.89c-2.79,27.63-5.36,55.27-8.15,82.9
		c-2.55,25.3-5.33,50.58-7.87,75.89c-1.23,12.25-1.72,24.58-3.28,36.78c-1.9,14.85-3.31,29.73-4.78,44.62
		c-1.78,18.02-3.71,36.03-5.53,54.05c-1.17,11.58-2.28,23.17-3.34,34.77c-0.09,0.96-0.77,2.64,1.08,2.72
		c1.25,0.06,1.2-1.37,1.43-2.28c0.2-0.8,0.28-1.64,0.36-2.47c1.69-16.54,3.52-33.07,5.02-49.62c2.57-28.32,5.57-56.59,8.38-84.88
		c2.48-24.97,4.94-49.95,7.63-74.9c2.53-23.47,4.76-46.97,7.13-70.46c2.33-23.16,4.69-46.32,6.98-69.48
		c2.72-27.63,5.3-55.28,8.08-82.91c2.53-25.14,5.34-50.26,7.89-75.4c2.15-21.18,4.03-42.38,6.14-63.56
		c1.91-19.19,3.98-38.36,5.96-57.54c1.28-12.4,2.65-24.8,3.7-37.22C1185.22,254.79,1186.93,249.31,1185.61,243.79z M758,751.09
		c0.36,1.36-1.02,3.63,0.92,3.86c2.43,0.29,1.59-2.33,2.03-3.76c0.05-0.16,0.03-0.33,0.05-0.5c1.34-11.72,2.69-23.43,4.03-35.15
		c3.06-26.74,6.08-53.48,9.19-80.21c3.56-30.53,7.21-61.05,10.8-91.58c2.71-23.09,5.39-46.19,8.08-69.28
		c2.66-22.76,5.35-45.52,7.96-68.29c2.41-20.97,4.66-41.95,7.11-62.92c2.97-25.41,6.11-50.81,9.09-76.22
		c1.76-15.01,3.28-30.06,5.05-45.07c2.39-20.3,4.9-40.59,7.38-60.88c0.15-1.2,0.37-2.67-1.16-2.78c-1.52-0.12-1.47,1.42-1.61,2.58
		c-0.96,7.91-2,15.81-2.9,23.73c-2.42,21.3-4.38,42.66-7.28,63.9c-2.61,19.1-4.31,38.29-6.7,57.42
		c-2.33,18.64-4.19,37.33-6.39,55.98c-2.45,20.8-5.15,41.57-7.57,62.38c-2.21,18.99-4.08,38.02-6.3,57.01
		c-2.43,20.79-5.2,41.55-7.64,62.34c-3.05,25.92-5.94,51.85-8.88,77.78c-1.8,15.85-3.39,31.72-5.39,47.55
		c-1.58,12.54-3,25.1-4.31,37.67C762.01,721.5,759.88,736.3,758,751.09z M1091.18,919.58c0,0.01-0.76,1.9,1.1,2.05
		c1.77,0.14,1.6-1.72,1.72-3.01c0.41-4.13,0.75-8.28,1.25-12.4c2.53-20.95,5.21-41.88,7.64-62.83c2.26-19.48,4.15-39,6.42-58.48
		c2.39-20.48,5.16-40.92,7.53-61.4c2.88-24.92,5.01-49.93,8.41-74.78c2.82-20.59,4.75-41.26,7.44-61.86
		c4.27-32.63,7.57-65.39,11.32-98.09c2.63-22.94,5.34-45.86,7.98-68.8c1.8-15.68,3.44-31.38,5.3-47.06
		c1.76-14.85,3.73-29.67,5.53-44.52c0.14-1.15,0.97-3.07-0.89-3.37c-2.32-0.38-1.82,1.77-1.98,3.14
		c-1.87,15.85-3.73,31.7-5.58,47.55c-2.51,21.46-5.06,42.92-7.52,64.39c-2.1,18.32-4.03,36.66-6.2,54.98
		c-2.45,20.79-5.18,41.55-7.6,62.35c-4.45,38.29-8.74,76.6-13.15,114.9c-2.64,22.94-5.39,45.86-8.06,68.79
		c-3.35,28.72-6.65,57.45-9.99,86.17c-1.9,16.34-3.86,32.67-5.76,49.02C1094.48,890.34,1092.91,904.37,1091.18,919.58z
		 M1086.72,194.5c-0.15-0.33-0.23-0.9-0.56-1.12c-0.61-0.42-1.33-0.24-1.74,0.37c-0.83,1.24-1.62,2.51-2.33,3.82
		c-5.78,10.63-11.51,21.29-17.29,31.92c-17.4,31.98-34.83,63.94-52.22,95.93c-12.27,22.56-24.48,45.16-36.74,67.72
		c-15.28,28.1-30.58,56.17-45.88,84.26c-14.8,27.16-29.63,54.31-44.42,81.48c-15.27,28.06-30.49,56.14-45.74,84.22
		c-12.02,22.14-24,44.3-36.07,66.41c-12.14,22.24-24.38,44.43-36.54,66.66c-0.49,0.9-1.93,2.12-0.49,3c1.66,1.01,2.1-0.94,2.84-1.9
		c0.3-0.39,0.47-0.88,0.71-1.32c18.38-33.75,36.77-67.5,55.13-101.26c21.61-39.74,43.14-79.53,64.78-119.25
		c37.79-69.36,75.67-138.67,113.45-208.03c27.17-49.88,54.24-99.81,81.36-149.72C1085.52,196.68,1086.08,195.66,1086.72,194.5z
		 M835.19,886.85c1.62-0.32,2.03-1.72,2.64-2.84c12.12-22.26,24.21-44.55,36.31-66.82c21.66-39.87,43.32-79.74,65.01-119.6
		c23.99-44.08,48.02-88.14,72.01-132.22c15.12-27.77,30.18-55.57,45.3-83.34c17.26-31.69,34.57-63.34,51.83-95.03
		c15.04-27.61,30.05-55.25,45.06-82.88c0.56-1.04,2.32-2.29,0.69-3.34c-1.54-0.99-2.07,1.01-2.82,1.97c-0.3,0.38-0.41,0.9-0.65,1.33
		c-25.85,47.52-51.69,95.06-77.57,142.56c-24.24,44.5-48.54,88.96-72.79,133.46c-27.36,50.19-54.69,100.4-82.02,150.61
		c-25.4,46.66-50.77,93.33-76.15,140c-2.45,4.5-4.86,9.01-7.31,13.5C834.13,885.28,833.41,886.32,835.19,886.85z M1134.96,376.27
		c-0.69-0.82-1.36-1.61-2.34-0.5c-0.75,0.85-1.29,1.91-1.82,2.94c-13.42,25.87-26.84,51.74-40.23,77.63
		c-17.43,33.69-34.84,67.4-52.27,101.09c-24.97,48.28-49.96,96.55-74.92,144.84c-11.94,23.09-23.83,46.2-35.77,69.29
		c-16.14,31.18-32.31,62.34-48.44,93.53c-0.39,0.76-1.66,1.74-0.39,2.52c1.42,0.88,2.07-0.61,2.58-1.55
		c2.27-4.22,4.44-8.5,6.65-12.75c28.89-55.7,57.8-111.39,86.65-167.11c19.86-38.36,39.6-76.79,59.46-115.16
		c33.2-64.13,66.45-128.24,99.68-192.36C1134.15,377.94,1134.5,377.2,1134.96,376.27z M1042.53,213.4
		c-0.21-0.38-0.36-1.05-0.66-1.13c-1.82-0.46-2.21,1.14-2.77,2.23c-4.94,9.54-9.78,19.13-14.73,28.67
		c-19.38,37.34-38.83,74.65-58.18,112.01c-17.52,33.83-34.93,67.72-52.43,101.57c-24.73,47.83-49.5,95.64-74.27,143.46
		c-12.41,23.96-24.85,47.89-37.27,71.85c-5.11,9.85-10.2,19.71-15.29,29.57c-0.5,0.97-1.67,2.2-0.15,2.95
		c1.33,0.65,1.93-0.83,2.5-1.82c0.33-0.58,0.62-1.18,0.93-1.77c6.93-13.37,13.88-26.72,20.78-40.1
		c21.33-41.34,42.6-82.7,63.97-124.02c17.95-34.72,36.05-69.36,54.01-104.07c23.75-45.91,47.4-91.86,71.13-137.77
		c13.68-26.47,27.44-52.9,41.17-79.34C1041.63,214.95,1042.06,214.24,1042.53,213.4z M1073.96,896.23c0.54,0.08,1.08,0.16,1.61,0.24
		c0.49-2.32,1.16-4.62,1.45-6.96c2.1-16.81,3.74-33.7,6.29-50.44c2.58-16.91,4.42-33.9,6.74-50.84c2.23-16.3,3.93-32.68,6.26-48.95
		c2.33-16.28,4.22-32.61,6.55-48.88c2.87-20.05,5.15-40.18,7.75-60.26c3.44-26.53,7.2-53.01,10.37-79.57
		c2.93-24.58,6.63-49.07,9.33-73.68c2.33-21.29,5.78-42.45,8.45-63.7c0.28-2.24,2.54-6.1-0.63-6.82c-1.74-0.39-1.78,4.31-2.11,6.79
		c-3.08,23.21-6.09,46.42-9.07,69.64c-2.77,21.57-5.43,43.16-8.22,64.72c-3.88,29.98-7.85,59.95-11.78,89.92
		c-3.04,23.22-6.11,46.45-9.13,69.67c-3,23.08-5.93,46.17-8.92,69.24c-1.97,15.15-4.01,30.3-5.99,45.45
		c-2.22,16.96-4.61,33.9-6.52,50.9C1075.51,880.52,1073.57,888.29,1073.96,896.23z M847.01,187.05c-0.34-1,0.9-3.07-0.86-3.22
		c-1.99-0.17-1.68,2.23-1.86,3.47c-1.27,9.22-2.28,18.48-3.48,27.7c-3.24,24.86-6.55,49.71-9.82,74.56
		c-3.01,22.89-6.07,45.77-9,68.67c-3.42,26.69-6.64,53.41-10.11,80.1c-3.91,30.13-8.07,60.22-12,90.35
		c-2.79,21.4-5.27,42.84-8.07,64.24c-3.4,26.01-7,52-10.49,78.01c-0.16,1.22-0.84,2.98,1.23,3.08c1.55,0.07,1.36-1.5,1.52-2.64
		c1.61-11.67,3.36-23.33,4.87-35.01c4.1-31.62,8.1-63.26,12.13-94.89c3.38-26.52,6.67-53.05,10.13-79.56
		c3.91-29.97,8.01-59.91,11.91-89.87c2.17-16.63,4-33.31,6.16-49.94c2.14-16.47,4.54-32.9,6.73-49.36
		c2.35-17.61,4.61-35.23,6.87-52.85C844.28,208.98,845.62,198.09,847.01,187.05z M867.87,209.22c-0.11-0.46,0.92-2.12-0.92-2.23
		c-1.45-0.09-1.64,1.46-1.82,2.57c-1.5,9-2.89,18.01-4.44,27c-3.92,22.71-7.94,45.39-11.84,68.1c-4.02,23.37-7.93,46.75-11.93,70.12
		c-2.24,13.07-4.61,26.12-6.85,39.19c-2.88,16.83-5.65,33.68-8.53,50.5c-2.79,16.36-5.7,32.69-8.48,49.05
		c-3.38,19.93-6.72,39.86-9.96,59.81c-0.31,1.9-2.49,5.12,0.04,5.61c2.86,0.56,2.34-3.4,2.68-5.34c2.93-16.98,5.48-34.03,8.4-51.02
		c4.46-25.99,9.22-51.92,13.66-77.91c4.27-25.01,8.19-50.08,12.44-75.1c3.86-22.73,7.96-45.41,11.91-68.12
		c3.22-18.46,6.42-36.92,9.56-55.4C863.84,233.95,865.79,221.83,867.87,209.22z M1053.54,874.08c1.9-2.43,2.27-4.3,2.58-6.22
		c2.35-14.23,4.63-28.48,7.09-42.69c4.5-25.98,9.21-51.93,13.64-77.92c4.25-25.01,8.15-50.07,12.39-75.08
		c3.85-22.71,8.15-45.35,11.87-68.08c2.71-16.52,5.54-33.03,8.33-49.54c2.87-16.99,5.61-34.01,8.86-50.94
		c0.22-1.12,0.93-2.51-0.75-2.85c-1.77-0.36-1.53,1.29-1.72,2.35c-1.05,6.03-2.05,12.06-3.12,18.09
		c-2.92,16.49-5.99,32.96-8.78,49.47c-3.82,22.55-7.33,45.16-11.19,67.71c-4.42,25.81-9.22,51.57-13.62,77.39
		c-4.29,25.17-8.18,50.4-12.44,75.58c-3.96,23.38-8.27,46.69-12.2,70.07C1053.85,865.2,1052.17,869.02,1053.54,874.08z
		 M924.98,840.64c1.95-0.6,2.4-2.33,3.11-3.76c13.39-26.79,26.74-53.6,40.13-80.38c17.53-35.07,35.1-70.13,52.65-105.2
		c15.03-30.04,30.07-60.08,45.07-90.14c14.77-29.6,29.51-59.21,44.21-88.84c0.62-1.25,2.88-2.98,0.88-4.01
		c-1.79-0.92-2.3,1.73-3.09,3.1c-0.25,0.43-0.58,0.82-0.81,1.26c-31.65,63.46-63.25,126.95-94.94,190.38
		c-24.53,49.1-49.19,98.13-73.78,147.19c-4.53,9.03-9,18.09-13.5,27.13C924.36,838.48,923.21,839.59,924.98,840.64z M938.06,947.41
		c0,0.14,0,0.29,0.01,0.43c8.15,0,16.31-0.11,24.46,0.02c54.61,0.82,109.22,1.7,163.84,2.55c1.33,0.02,2.67,0.09,3.98-0.08
		c0.53-0.07,1.32-0.64,1.41-1.1c0.23-1.12-0.73-1.27-1.59-1.31c-0.83-0.04-1.66-0.04-2.5-0.05c-50.6-0.92-101.21-1.92-151.81-2.75
		c-38.46-0.63-76.92-0.99-115.38-1.57c-37.29-0.57-74.59-1.28-111.88-1.88c-1.29-0.02-3.57-0.94-3.59,1.27
		c-0.01,1.81,2.13,0.95,3.27,0.97C811.54,945.11,874.8,946.26,938.06,947.41z M981.24,132.56c-2.76,0-7.25,0.05-11.74-0.01
		c-20.32-0.26-40.64-0.5-60.96-0.85c-38.64-0.67-77.27-1.43-115.91-2.1c-1.27-0.02-3.55-0.86-3.34,1.53
		c0.15,1.74,2.19,0.93,3.36,0.95c52.12,0.99,104.24,2.01,156.36,2.87c37.3,0.61,74.61,0.96,111.92,1.52
		c37.14,0.57,74.28,1.27,111.41,1.85c1.23,0.02,3.56,0.91,3.39-1.41c-0.12-1.64-2.22-0.82-3.4-0.84
		C1109.21,134.89,1046.1,133.74,981.24,132.56z M808.76,611.64c2.59,0.47,2.82-0.94,3.41-2.11c4.75-9.49,9.57-18.94,14.32-28.42
		c28.52-56.94,57.04-113.87,85.54-170.82c27.79-55.52,55.56-111.04,83.27-166.59c0.6-1.2,3.02-2.98,0.58-4.04
		c-1.69-0.73-2.33,1.82-3.03,3.23c-4.29,8.54-8.55,17.09-12.82,25.64c-19.44,38.94-38.85,77.9-58.32,116.82
		c-19.39,38.77-38.85,77.51-58.25,116.28c-15.83,31.65-31.63,63.32-47.42,94.99C813.6,601.54,811.25,606.51,808.76,611.64z
		 M1098.88,534.48c-0.21-0.35-0.37-0.9-0.72-1.12c-0.68-0.42-1.37,0.02-1.68,0.57c-1.16,2.01-2.27,4.05-3.29,6.14
		c-24.76,50.49-49.47,101.01-74.27,151.49c-19.91,40.53-39.93,81.01-59.89,121.51c-3.65,7.41-7.29,14.84-10.87,22.29
		c-0.44,0.9-1.82,2.13-0.19,2.95c1.41,0.71,1.85-0.9,2.47-1.79c0.28-0.41,0.44-0.89,0.66-1.34c10.82-21.98,21.67-43.94,32.46-65.94
		c14.39-29.37,28.68-58.79,43.11-88.14c23.72-48.26,47.52-96.48,71.29-144.72C1098.23,535.77,1098.53,535.18,1098.88,534.48z
		 M973.52,242.86c-0.19-0.38-0.29-0.99-0.62-1.16c-0.32-0.17-1.09-0.05-1.28,0.21c-0.85,1.2-1.67,2.45-2.31,3.76
		c-11.36,23.16-22.67,46.35-34.05,69.5c-18.1,36.85-36.25,73.68-54.37,110.52c-14.46,29.39-28.92,58.78-43.38,88.17
		c-4.89,9.95-9.77,19.9-14.65,29.85c-0.49,0.99-1.57,2.17-0.02,2.92c1.06,0.52,1.7-0.66,2.18-1.54c0.32-0.58,0.6-1.19,0.89-1.78
		c9.05-18.4,18.1-36.8,27.13-55.21c16.55-33.72,33.08-67.46,49.63-101.18c22.76-46.37,45.53-92.73,68.31-139.09
		C971.78,246.21,972.63,244.59,973.52,242.86z M1079.36,931.49c0,0.04-0.01,0.08-0.01,0.12c4.82,0.3,9.64,0.63,14.46,0.88
		c1,0.05,2.12-0.15,2-1.54c-0.1-1.14-1.15-0.97-1.93-1.05c-2.97-0.32-5.95-0.71-8.93-0.9c-20.72-1.35-41.45-2.66-62.18-3.96
		c-28.05-1.76-56.1-3.45-84.14-5.25c-27.91-1.79-55.81-3.68-83.72-5.5c-17.43-1.14-34.86-2.24-52.29-3.3
		c-1.18-0.07-3.16-0.75-3.35,1.05c-0.24,2.31,1.97,1.71,3.3,1.79c40.65,2.7,81.31,5.37,121.97,8.02
		c20.89,1.36,41.78,2.67,62.68,3.97C1017.93,927.74,1048.65,929.61,1079.36,931.49z M835.98,148.13c0-0.03,0-0.06,0.01-0.09
		c-2.66-0.16-5.32-0.35-7.98-0.48c-1.12-0.06-2.67-0.44-2.86,1.13c-0.23,1.86,1.48,1.24,2.5,1.42c5.93,1.03,11.95,0.79,17.92,1.17
		c19.08,1.2,38.14,2.58,57.22,3.81c13.11,0.85,26.23,1.48,39.34,2.34c32.57,2.14,65.14,4.36,97.71,6.53
		c19.1,1.28,38.2,2.54,57.3,3.78c7.31,0.48,14.62,0.9,21.93,1.3c1.11,0.06,2.63,0.22,2.63-1.43c0-1.16-1.25-1.38-2.29-1.43
		c-0.83-0.04-1.67-0.05-2.5-0.1c-16.62-1.03-33.24-2.02-49.85-3.12c-28.87-1.91-57.74-3.92-86.61-5.82
		c-21.07-1.39-42.14-2.68-63.21-3.99C890.14,151.47,863.06,149.8,835.98,148.13z M824.1,510.97c3.19-2.81,3.3-5.4,3.81-7.75
		c6.17-28.63,12.14-57.3,18.42-85.9c7.07-32.17,14.13-64.33,20.86-96.58c6.02-28.84,12.64-57.56,18.95-86.35
		c0.3-1.39,2.14-3.58-0.39-4.16c-2.36-0.54-1.44,2.47-2.39,3.64c-0.19,0.23-0.19,0.63-0.26,0.95c-4.28,19.74-8.58,39.47-12.83,59.22
		c-6.48,30.09-12.87,60.19-19.39,90.27c-7.85,36.23-15.88,72.42-23.61,108.68C826.09,498.51,824.18,503.98,824.1,510.97z
		 M1034.06,848.34c0.01-0.21-0.56,1.05,0.69,1.44c1.56,0.49,1.89-0.88,2.22-2.02c0.23-0.8,0.52-1.59,0.69-2.4
		c4.39-20.4,8.81-40.8,13.15-61.21c4.17-19.6,8.18-39.24,12.42-58.82c5.17-23.94,10.5-47.85,15.77-71.77
		c3.56-16.17,7.16-32.34,10.71-48.52c2.34-10.66,4.64-21.33,6.94-32c0.23-1.09,0.85-2.48-0.82-2.85c-1.22-0.27-1.58,0.88-1.84,1.88
		c-0.26,0.96-0.64,1.89-0.85,2.86c-3,13.92-6.01,27.83-8.96,41.76c-5.5,25.92-10.89,51.87-16.47,77.78
		c-3.8,17.63-7.87,35.19-11.75,52.8c-4.49,20.37-8.92,40.76-13.34,61.14C1039.83,821.35,1037.08,834.29,1034.06,848.34z
		 M1060.84,187.92c0.74-0.08,2.63,0.73,2.85-1.08c0.23-1.85-1.68-1.58-2.93-1.77c-0.16-0.02-0.33-0.04-0.5-0.06
		c-24.76-2.65-49.51-5.35-74.27-7.92c-17.82-1.85-35.67-3.42-53.48-5.32c-25.47-2.72-50.93-5.64-76.39-8.45
		c-1.38-0.15-3.46-0.82-3.56,1.33c-0.08,1.74,1.95,1.38,3.19,1.51c13.04,1.36,26.09,2.64,39.13,4.04
		c17.8,1.91,35.58,3.94,53.37,5.84c15.53,1.66,31.08,3.18,46.62,4.82C1016.7,183.16,1038.53,185.53,1060.84,187.92z M842.7,477.17
		c1.47-0.36,1.92-1.45,2.42-2.5c1.7-3.6,3.39-7.21,5.11-10.8c17.72-36.84,35.41-73.69,53.19-110.5
		c13.39-27.73,26.9-55.4,40.28-83.12c0.42-0.87,2-2.05,0.59-2.99c-1.69-1.12-2.31,0.77-2.83,1.82c-2.59,5.18-5.05,10.42-7.57,15.63
		c-25.93,53.69-51.87,107.37-77.81,161.06c-4.46,9.24-8.91,18.49-13.32,27.76C842.23,474.67,840.63,475.98,842.7,477.17z
		 M860.13,892.12c-0.69,0.13-2.62-0.88-2.87,0.93c-0.32,2.34,1.94,1.75,3.24,1.89c31.35,3.37,62.71,6.72,94.07,10.04
		c23.46,2.48,46.94,4.88,70.4,7.37c13.24,1.4,26.46,2.91,39.69,4.33c1.21,0.13,3.02,0.85,3.36-0.99c0.38-2.05-1.54-1.66-2.76-1.8
		c-3.63-0.42-7.27-0.8-10.9-1.2c-17.81-1.93-35.62-3.89-53.44-5.76c-18.31-1.93-36.64-3.73-54.95-5.66
		C917.53,898.26,889.08,895.21,860.13,892.12z M977.4,813.07c1.32-0.62,1.81-1.93,2.37-3.1c4.04-8.34,7.99-16.73,12.03-25.08
		c28.66-59.3,57.35-118.6,85.96-177.92c0.56-1.16,2.51-2.86,0.7-3.85c-1.64-0.9-2.25,1.31-2.89,2.62
		c-13.44,27.73-26.92,55.43-40.32,83.18c-17.27,35.78-34.48,71.6-51.71,107.41c-2.3,4.78-4.53,9.6-6.86,14.37
		c-0.37,0.76-0.98,1.38-0.21,2.15C976.67,813.04,977.08,813,977.4,813.07z M848.32,433.03c1.87-0.66,2.08-2.51,2.49-3.99
		c6.76-24.51,13.44-49.05,20.16-73.58c9.18-33.46,18.38-66.91,27.57-100.36c0.36-1.32,1.75-3.18-0.14-3.83
		c-1.97-0.67-2.06,1.69-2.41,2.98c-3.69,13.22-7.32,26.46-10.95,39.7c-9.05,32.99-18.08,65.99-27.14,98.98
		c-3.37,12.27-6.82,24.53-10.25,36.79C847.3,430.92,846.34,432.18,848.32,433.03z M1022.9,828.96c1.55-0.71,1.71-2.33,2.08-3.68
		c6.37-23.09,12.67-46.21,19.04-69.3c6.86-24.86,13.79-49.7,20.65-74.55c2.86-10.37,5.65-20.75,8.44-31.14
		c0.28-1.02,1.39-2.4-0.2-3.02c-2.01-0.79-1.85,1.35-2.4,2.36c-0.38,0.7-0.4,1.59-0.62,2.39c-10.32,37.61-20.62,75.22-30.98,112.82
		c-5.62,20.39-11.37,40.74-17.06,61.11C1021.51,827.15,1020.62,828.54,1022.9,828.96z M857.21,189.92c1.11,1.79,3.14,1.76,4.77,2
		c17.21,2.51,34.44,4.84,51.65,7.31c26.96,3.87,53.91,7.82,80.86,11.73c4.91,0.71,9.82,1.43,14.74,2.01
		c1.18,0.14,3.15,0.88,3.46-0.73c0.42-2.14-1.83-1.79-3.15-2.13c-0.64-0.17-1.32-0.16-1.98-0.26c-16.31-2.31-32.61-4.61-48.91-6.95
		c-32.31-4.63-64.62-9.3-96.94-13.9C860.22,188.78,858.41,187.75,857.21,189.92z M1061.91,891.35c-0.38-0.02,1.14,0.48,1.4-1.08
		c0.29-1.75-1.58-1.26-2.52-1.65c-0.9-0.38-1.91-0.52-2.89-0.66c-13.1-1.78-26.22-3.45-39.3-5.34
		c-35.61-5.15-71.2-10.41-106.82-15.54c-1.2-0.17-3.39-1.19-3.61,1.06c-0.16,1.63,1.84,1.59,3.09,1.77
		c18.75,2.69,37.5,5.33,56.25,8.01c17.84,2.55,35.68,5.15,53.52,7.69C1034.15,887.49,1047.28,889.3,1061.91,891.35z M859.64,420.33
		c1.72-0.72,2.09-2.43,2.79-3.89c19.9-41.87,39.83-83.73,59.6-125.66c0.99-2.1,4.32-5.43,1.95-6.53c-2.46-1.14-3.1,3.46-4.15,5.64
		c-14.53,30.26-28.94,60.56-43.35,90.88c-5.75,12.1-11.44,24.24-17.1,36.39C858.93,418.12,857.35,419.38,859.64,420.33z
		 M995.62,795.67c0.7,0.34,1.41,0.67,2.11,1.01c21.9-45.29,43.37-90.79,64.82-136.3c-0.73-0.35-1.46-0.69-2.18-1.04
		C1038.78,704.78,1017.2,750.23,995.62,795.67z M878.22,207.3c1.07,2.23,2.8,2.38,4.36,2.73c24.48,5.58,48.97,11.13,73.46,16.69
		c6.11,1.39,12.21,2.78,18.32,4.14c0.93,0.21,2.12,0.6,2.54-0.64c0.43-1.24-0.68-1.73-1.62-2.06c-0.78-0.27-1.63-0.32-2.44-0.51
		c-28.67-6.53-57.33-13.11-86.03-19.5C884.23,207.59,881.59,205.95,878.22,207.3z M945.1,848.97c-0.17-0.01-1.16-0.08-1.18,1.05
		c-0.01,0.51,0.51,1.3,0.99,1.5c1.05,0.45,2.22,0.64,3.36,0.9c23.04,5.22,46.07,10.43,69.11,15.65c7.29,1.65,14.58,3.34,21.87,5.01
		c1.13,0.26,2.53,0.75,2.85-0.88c0.25-1.29-1.24-1.3-2.07-1.7c-0.59-0.28-1.25-0.41-1.9-0.55c-21.45-4.88-42.9-9.76-64.35-14.61
		C964.43,853.24,955.08,851.19,945.1,848.97z M1016.05,809.98c2.29-0.5,2.32-2.58,2.89-4.2c8.37-23.67,16.7-47.34,25.06-71.01
		c2.2-6.23,4.42-12.46,6.67-18.67c0.35-0.98,0.77-2.12-0.26-2.63c-1.14-0.57-1.74,0.63-2.18,1.5c-0.37,0.73-0.51,1.58-0.78,2.36
		c-5.49,15.59-10.97,31.19-16.49,46.77c-5.01,14.18-10.06,28.35-15.08,42.53C1015.49,807.71,1014.12,808.91,1016.05,809.98z
		 M870.82,366.79c1.37-0.64,1.84-1.95,2.34-3.38c10.63-30.15,21.3-60.28,31.96-90.42c0.35-0.98,1.58-2.21-0.27-2.82
		c-1.58-0.52-1.91,1.02-2.29,2.03c-1.16,3.08-2.18,6.21-3.28,9.31c-9.72,27.5-19.45,55-29.17,82.5
		C869.79,364.95,869.5,365.91,870.82,366.79z M1023.03,847.9c-1.06-2.53-2.56-2.71-3.98-3.06c-16.08-3.98-32.16-7.98-48.25-11.94
		c-1.29-0.32-3.13-2.1-3.83-0.04c-0.83,2.47,1.95,2.24,3.28,2.58c12.8,3.26,25.61,6.46,38.46,9.49
		C1013.26,846.01,1017.68,847.91,1023.03,847.9z M954.08,246.79c-0.21-1.72-1.56-1.73-2.64-2.01c-4.17-1.1-8.35-2.14-12.53-3.19
		c-12.45-3.12-24.91-6.23-37.37-9.34c-1.12-0.28-2.71-0.83-3.14,0.35c-0.66,1.81,1.32,2.06,2.45,2.36
		c3.82,1.05,7.71,1.87,11.55,2.83c12.87,3.2,25.74,6.39,38.59,9.67C952.34,247.8,953.5,248.58,954.08,246.79z M907.35,298.08
		c-1.99,1.1-2.51,2.92-3.26,4.49c-2.7,5.67-5.33,11.39-7.97,17.09c-2.43,5.25-4.84,10.5-7.27,15.75c-0.4,0.86-1.35,1.85-0.1,2.54
		c1.09,0.6,1.78-0.39,2.27-1.31c0.39-0.73,0.77-1.46,1.12-2.2c4.97-10.58,9.96-21.16,14.84-31.78
		C907.54,301.42,908.81,300.11,907.35,298.08z M1013.44,781.63c2.15-0.52,2.46-2.55,3.18-4.07c5.01-10.56,9.95-21.15,14.8-31.79
		c0.49-1.07,2.55-2.71,0.35-3.65c-1.79-0.76-2.22,1.49-2.81,2.74c-5.03,10.74-10.05,21.48-14.96,32.27
		C1013.4,778.44,1011.86,779.87,1013.44,781.63z M909.25,253.14c-0.65-0.15-1.32-0.02-1.41,0.81c-0.13,1.2,0.81,1.71,1.69,2.2
		c6.52,3.63,13.03,7.28,19.58,10.86c0.74,0.4,1.77,1.58,2.55,0.31c0.87-1.42-0.54-2.04-1.51-2.59c-4.9-2.79-9.82-5.54-14.75-8.28
		C913.38,255.33,911.34,254.27,909.25,253.14z M989.93,812.1c-0.28,0.25-0.79,0.49-0.9,0.86c-0.37,1.24,0.59,1.75,1.46,2.23
		c6.64,3.69,13.29,7.37,19.94,11.06c0.84,0.47,1.8,1.3,2.44-0.04c0.4-0.83-0.32-1.6-1.07-2.01c-6.93-3.89-13.88-7.75-20.83-11.61
		C990.7,812.43,990.4,812.31,989.93,812.1z M1007.46,810.74c-1.1-3.57-3.92-5.65-6.22-8.14c-0.38-0.41-1.25-0.73-1.72-0.57
		c-0.65,0.22-0.8,1.13-0.29,1.65C1001.75,806.25,1003.73,809.47,1007.46,810.74z M913.35,269.33c1.19,3.45,4.01,5.5,6.19,8.07
		c0.55,0.64,1.37,1.04,2.1,0.26c0.54-0.57,0.25-1.28-0.24-1.73C918.85,273.61,916.96,270.49,913.35,269.33z"/>
	<path class="st1" d="M766.94,118.25c2.48-1.89,4.7-1.16,6.72-1.16c146.45-0.04,292.9-0.03,439.36-0.04c2.9,0,6.46-1.2,8.55,0.07
		c3.03,1.84-0.65,4.85-0.76,7.54c-1.41,34.59-2.9,69.19-5.04,103.75c-2.3,37.21-3.8,74.46-6.05,111.67
		c-2.58,42.86-4.53,85.75-7.02,128.62c-2.48,42.7-4.51,85.43-6.98,128.12c-2.48,42.87-4.73,85.75-6.95,128.63
		c-2.21,42.88-4.65,85.75-6.99,128.63c-1.96,35.89-3.92,71.79-5.89,107.68c-0.02,0.33,0.01,0.67-0.05,1
		c-0.23,1.19,0.42,3.08-1.57,3.08c-2.23,0.01-1.31-1.98-1.26-3.04c0.34-8.15,0.78-16.29,1.26-24.44
		c0.86-14.62,1.82-29.23,2.64-43.85c1.31-23.59,2.55-47.18,3.81-70.78c0.74-13.96,1.45-27.92,2.21-41.88
		c1.59-28.91,3.22-57.82,4.8-86.72c1.1-20.1,2.11-40.21,3.21-60.32c1.24-22.77,2.53-45.53,3.79-68.29
		c1.07-19.27,2.14-38.54,3.19-57.81c1.3-23.76,2.58-47.53,3.85-71.29c1.07-20.1,2.09-40.21,3.18-60.3
		c1.24-22.77,2.54-45.54,3.8-68.31c1.07-19.43,2.12-38.86,3.18-58.29c1.28-23.44,2.55-46.87,3.84-70.31
		c1.04-18.76,2-37.53,3.23-56.28c0.26-4.01-1.03-4.79-4.84-4.79c-146.79,0.1-293.57,0.09-440.36,0.06
		C771.72,119.2,769.52,119.8,766.94,118.25z"/>
	<path class="st1" d="M1153.1,962.73c-151.99,0-303.99,0-457.6,0c3.79-2.28,4.35-4.71,4.48-7.27c0.69-12.94,1.43-25.88,1.99-38.82
		c1.05-24.62,2.2-49.23,3.95-73.81c0.97-13.75,1.37-27.54,2.13-41.31c1.6-29.08,3.28-58.15,4.88-87.23
		c0.77-13.93,1.36-27.88,2.12-41.81c1.59-28.91,3.27-57.81,4.86-86.72c0.76-13.77,1.37-27.55,2.12-41.32
		c1.58-28.91,3.23-57.82,4.82-86.73c0.76-13.77,1.41-27.55,2.17-41.32c1.23-22.26,2.52-44.51,3.74-66.77
		c0.79-14.29,1.48-28.58,2.25-42.87c1.26-23.08,2.55-46.16,3.82-69.24c0.74-13.46,1.47-26.92,2.17-40.38
		c1.38-26.74,2.74-53.49,4.12-80.23c0.06-1.22-0.36-3.02,1.79-2.74c1.74,0.23,1.05,1.8,0.99,2.8c-1.2,19.93-2.51,39.86-3.67,59.79
		c-0.79,13.63-1.47,27.26-2.07,40.9c-1.05,23.95-2.41,47.89-3.95,71.81c-1.31,20.42-2.03,40.88-3.14,61.32
		c-1.21,22.28-2.63,44.54-3.85,66.82c-1.11,20.27-2.01,40.55-3.12,60.82c-1.23,22.61-2.64,45.21-3.89,67.81
		c-1.08,19.61-1.98,39.22-3.07,58.83c-1.62,29.08-3.4,58.16-4.98,87.24c-1.12,20.61-1.95,41.24-3.07,61.85
		c-1.22,22.27-2.71,44.52-3.92,66.79c-1.13,20.61-1.96,41.24-3.08,61.85c-1.21,22.27-2.49,44.53-3.97,66.78
		c-0.74,11.19-0.96,11.18,10.26,11.18c144.95,0,289.9,0,434.85,0.03C1149.2,960.8,1151.37,960.16,1153.1,962.73z"/>
	<path class="st2" d="M706.68,957.55c-1.42-1.88,0.25-2.88,0.96-4.03c29.82-48.45,59.69-96.88,89.51-145.33
		c37.75-61.32,75.46-122.66,113.21-183.97c34.7-56.35,69.44-112.67,104.15-169c32.11-52.11,64.2-104.23,96.3-156.34
		c32.28-52.39,64.56-104.77,96.84-157.15c0.09-0.14,0.15-0.31,0.26-0.42c1.01-1.1,1.46-3.81,3.38-2.58
		c1.61,1.03-0.42,2.59-1.13,3.75c-16.94,27.55-33.91,55.07-50.89,82.6c-41.53,67.35-83.1,134.69-124.6,202.07
		c-33.31,54.09-66.52,108.24-99.82,162.34c-32.34,52.55-64.72,105.08-97.1,157.61c-29.77,48.3-59.54,96.59-89.32,144.88
		c-12.71,20.61-25.46,41.2-38.23,61.77C709.29,955.19,708.76,957.13,706.68,957.55z"/>
	<path class="st2" d="M1215.15,123.36c-168.17,272.96-336.33,545.92-504.5,818.88c-0.7-0.43-1.39-0.86-2.09-1.29
		c168.19-273,336.38-545.99,504.56-818.99C1213.8,122.42,1214.47,122.89,1215.15,123.36z"/>
	<path class="st2" d="M774.38,148.89c-0.91,18.06-2.84,36.43-4.04,54.85c-1.09,16.77-2.06,33.55-3.32,50.31
		c-1.92,25.71-3.78,51.43-5.61,77.15c-1.52,21.41-2.91,42.83-4.46,64.24c-1.49,20.75-3.16,41.49-4.65,62.24
		c-1.49,20.75-2.8,41.52-4.28,62.27c-1.46,20.42-3.1,40.82-4.54,61.24c-1.55,21.92-2.95,43.85-4.46,65.77
		c-2.09,30.39-4.17,60.77-6.33,91.15c-1.83,25.72-3.75,51.43-5.64,77.14c-1.97,26.87-3.94,53.75-5.9,80.62
		c-0.08,1.16,0.05,2.75-1.47,2.67c-1.44-0.07-1.31-1.53-1.21-2.78c2.48-34.02,4.94-68.04,7.38-102.07
		c1.76-24.56,3.46-49.12,5.22-73.67c1.85-25.9,3.77-51.79,5.6-77.68c1.5-21.25,2.69-42.53,4.41-63.76
		c2.8-34.51,4.42-69.1,7.66-103.57c1.56-16.56,2.04-33.22,3.2-49.82c3.03-43.49,6.16-86.98,9.27-130.47
		c1.57-21.9,3.18-43.79,4.78-65.68c1.96-26.87,3.92-53.75,5.88-80.62c0.08-1.13-0.18-2.74,1.43-2.66
		C774.9,145.83,774.69,147.31,774.38,148.89z"/>
	<path class="st2" d="M1202.22,188.97c-1.35,15.58-3.07,31.14-3.95,46.74c-0.94,16.79-1.94,33.57-3.23,50.34
		c-2.02,26.21-3.95,52.42-5.82,78.64c-1.51,21.07-2.8,42.16-4.33,63.23c-1.52,20.91-2.81,41.83-4.66,62.71
		c-1.88,21.21-2.83,42.49-4.33,63.74c-1.43,20.25-3.25,40.48-4.51,60.74c-1.25,20.1-2.62,40.19-4.29,60.27
		c-1.88,22.56-3.13,45.17-4.71,67.75c-2.45,35.2-4.92,70.4-7.42,105.6c-1.95,27.55-3.96,55.1-5.94,82.66
		c-0.09,1.28,0.14,3.09-1.77,2.85c-1.88-0.24-1.23-2.08-1.14-3.3c0.97-13.28,2.04-26.55,3-39.83c1.34-18.6,2.58-37.2,3.9-55.79
		c3.01-42.5,6.04-85,9.07-127.51c1.96-27.38,3.96-54.76,5.91-82.14c2.7-37.84,5.38-75.69,8.08-113.53
		c1.64-23.05,3.27-46.11,4.95-69.16c2.91-39.99,5.9-79.97,8.75-119.96c1.85-25.9,3.43-51.81,5.26-77.71
		c1.41-19.92,2.99-39.82,4.6-59.73c0.11-1.41-0.78-4.19,1.54-3.95c2.07,0.22,0.66,2.81,0.85,4.33c0.12,0.98,0.02,2,0.02,2.99
		C1202.11,188.95,1202.17,188.96,1202.22,188.97z"/>
	<path class="st2" d="M1174.45,227.07c-0.43,0.74-0.92,1.6-1.42,2.45c-40.36,68.95-80.71,137.91-121.1,206.84
		c-31.16,53.19-62.41,106.33-93.56,159.52c-23.8,40.64-47.49,81.35-71.29,121.99c-22.1,37.76-44.3,75.46-66.42,113.2
		c-14.83,25.3-29.6,50.64-44.39,75.96c-0.75,1.29-1.51,2.57-2.3,3.83c-0.67,1.07-1.32,2.97-2.81,1.95c-1.5-1.02,0.2-2.37,0.79-3.38
		c14.31-24.52,28.64-49.02,43.01-73.5c14.99-25.55,30.04-51.08,45.03-76.63c16.03-27.31,32.04-54.63,48.04-81.96
		c20.35-34.77,40.66-69.57,61.01-104.33c18.69-31.92,37.44-63.8,56.13-95.71c26.95-46.03,53.84-92.09,80.79-138.12
		c21.53-36.77,43.1-73.51,64.67-110.26c0.58-0.99,1.15-2.05,1.99-2.78C1173.17,225.64,1174.17,225.71,1174.45,227.07z"/>
	<path class="st2" d="M1149.6,166.59c0.87,2.49-0.57,3.68-1.36,5.03c-34.41,58.83-68.83,117.66-103.27,176.47
		c-41.3,70.54-82.61,141.07-123.95,211.59c-31.51,53.76-63.1,107.47-94.61,161.22c-25.16,42.92-50.26,85.88-75.38,128.83
		c-0.42,0.72-0.76,1.48-1.23,2.16c-0.72,1.02-1.37,2.96-2.86,1.99c-1.72-1.12,0.24-2.25,0.82-3.23
		c24-41.09,48.02-82.17,72.07-123.23c24.47-41.77,49.02-83.5,73.48-125.28c20.34-34.75,40.58-69.55,60.91-104.31
		c22.1-37.79,44.23-75.56,66.38-113.31c26.86-45.77,53.78-91.5,80.62-137.28c14.75-25.16,29.38-50.4,44.09-75.58
		C1146.34,169.88,1147.03,167.72,1149.6,166.59z"/>
	<path class="st2" d="M734.83,830.7c1.97-18.85,3.99-37.7,5.9-56.55c1.44-14.23,2.69-28.47,4.13-42.7
		c2.63-25.97,5.4-51.92,8.01-77.89c2.79-27.79,5.27-55.61,8.24-83.39c2.68-25.12,4.75-50.3,7.75-75.4
		c2.55-21.29,4.03-42.71,6.27-64.04c2.6-24.8,4.79-49.65,7.61-74.43c3.24-28.41,5.58-56.93,8.37-85.39
		c2.93-29.95,5.91-59.89,8.91-89.84c0.94-9.43,2.01-18.84,3.03-28.26c0.16-1.44-0.09-3.71,1.67-3.67c2.21,0.05,1.24,2.35,1.11,3.62
		c-2.14,20.51-4.46,41.01-6.54,61.52c-1.88,18.54-3.45,37.1-5.26,55.64c-1.79,18.37-3.75,36.72-5.58,55.08
		c-2.14,21.51-4.17,43.03-6.36,64.54c-2.58,25.3-5.35,50.58-7.91,75.89c-2.11,20.84-3.93,41.71-6.03,62.55
		c-2.57,25.47-5.37,50.92-7.93,76.39c-2.8,27.8-5.37,55.62-8.17,83.41c-2.54,25.14-5.33,50.26-7.88,75.41
		c-2.14,21.18-4.09,42.38-6.15,63.57c-0.21,2.15-0.55,4.29-0.94,6.41c-0.2,1.12,0.7,3.28-1.42,2.95c-1.81-0.28-0.64-2.21-0.74-3.42
		c-0.05-0.66,0.05-1.33,0.08-2C734.95,830.71,734.89,830.7,734.83,830.7z"/>
	<path class="st2" d="M1185.61,243.79c1.32,5.52-0.39,10.99-0.84,16.45c-1.04,12.42-2.42,24.82-3.7,37.22
		c-1.98,19.18-4.05,38.36-5.96,57.54c-2.11,21.18-4,42.38-6.14,63.56c-2.55,25.14-5.35,50.26-7.89,75.4
		c-2.78,27.63-5.36,55.28-8.08,82.91c-2.28,23.16-4.65,46.32-6.98,69.48c-2.36,23.49-4.6,46.99-7.13,70.46
		c-2.69,24.95-5.15,49.93-7.63,74.9c-2.81,28.29-5.81,56.57-8.38,84.88c-1.5,16.56-3.33,33.08-5.02,49.62
		c-0.08,0.83-0.16,1.66-0.36,2.47c-0.23,0.91-0.18,2.34-1.43,2.28c-1.85-0.08-1.17-1.77-1.08-2.72c1.06-11.59,2.17-23.18,3.34-34.77
		c1.82-18.02,3.75-36.03,5.53-54.05c1.47-14.89,2.88-29.77,4.78-44.62c1.56-12.2,2.05-24.53,3.28-36.78
		c2.54-25.31,5.32-50.59,7.87-75.89c2.79-27.63,5.36-55.27,8.15-82.9c2.55-25.3,5.34-50.58,7.9-75.89
		c2.13-21.01,3.95-42.06,6.14-63.07c2.62-25.13,5.03-50.28,7.68-75.4c2.25-21.33,4.2-42.7,6.31-64.05
		c2.29-23.17,4.64-46.32,7.01-69.48c0.26-2.58,0.84-5.12,1.27-7.68C1184.7,243.72,1185.16,243.76,1185.61,243.79z"/>
	<path class="st2" d="M758,751.09c1.88-14.79,4-29.59,5.56-44.45c1.32-12.57,2.73-25.13,4.31-37.67c1.99-15.82,3.59-31.7,5.39-47.55
		c2.94-25.93,5.83-51.86,8.88-77.78c2.45-20.79,5.21-41.54,7.64-62.34c2.22-18.99,4.09-38.02,6.3-57.01
		c2.42-20.81,5.12-41.58,7.57-62.38c2.2-18.65,4.06-37.35,6.39-55.98c2.39-19.12,4.09-38.31,6.7-57.42
		c2.9-21.23,4.86-42.6,7.28-63.9c0.9-7.92,1.94-15.82,2.9-23.73c0.14-1.16,0.08-2.7,1.61-2.58c1.53,0.12,1.3,1.59,1.16,2.78
		c-2.47,20.29-4.99,40.58-7.38,60.88c-1.77,15.01-3.29,30.06-5.05,45.07c-2.98,25.41-6.12,50.81-9.09,76.22
		c-2.45,20.96-4.7,41.95-7.11,62.92c-2.61,22.77-5.3,45.53-7.96,68.29c-2.69,23.09-5.37,46.19-8.08,69.28
		c-3.59,30.53-7.24,61.05-10.8,91.58c-3.11,26.73-6.13,53.47-9.19,80.21c-1.34,11.72-2.69,23.43-4.03,35.15
		c-0.02,0.17,0,0.34-0.05,0.5c-0.44,1.43,0.4,4.04-2.03,3.76C756.98,754.72,758.36,752.45,758,751.09z"/>
	<path class="st2" d="M1091.18,919.58c1.73-15.22,3.3-29.24,4.93-43.26c1.9-16.34,3.85-32.67,5.76-49.02
		c3.34-28.72,6.65-57.45,9.99-86.17c2.67-22.93,5.42-45.86,8.06-68.79c4.41-38.3,8.69-76.61,13.15-114.9
		c2.42-20.8,5.15-41.56,7.6-62.35c2.16-18.32,4.09-36.66,6.2-54.98c2.47-21.47,5.01-42.92,7.52-64.39
		c1.86-15.85,3.72-31.7,5.58-47.55c0.16-1.37-0.35-3.52,1.98-3.14c1.86,0.3,1.03,2.22,0.89,3.37c-1.8,14.84-3.77,29.67-5.53,44.52
		c-1.86,15.68-3.5,31.38-5.3,47.06c-2.63,22.94-5.35,45.86-7.98,68.8c-3.75,32.7-7.05,65.46-11.32,98.09
		c-2.69,20.6-4.62,41.28-7.44,61.86c-3.4,24.84-5.53,49.86-8.41,74.78c-2.37,20.48-5.14,40.92-7.53,61.4
		c-2.27,19.48-4.16,39-6.42,58.48c-2.43,20.96-5.11,41.89-7.64,62.83c-0.5,4.12-0.84,8.26-1.25,12.4c-0.13,1.29,0.04,3.15-1.72,3.01
		C1090.42,921.48,1091.18,919.6,1091.18,919.58z"/>
	<path class="st2" d="M1086.72,194.5c-0.64,1.16-1.2,2.18-1.75,3.2c-27.12,49.91-54.19,99.84-81.36,149.72
		c-37.78,69.36-75.66,138.67-113.45,208.03c-21.64,39.72-43.17,79.51-64.78,119.25c-18.36,33.76-36.75,67.51-55.13,101.26
		c-0.24,0.44-0.41,0.93-0.71,1.32c-0.74,0.96-1.18,2.91-2.84,1.9c-1.44-0.88,0-2.1,0.49-3c12.16-22.23,24.39-44.42,36.54-66.66
		c12.07-22.11,24.05-44.27,36.07-66.41c15.24-28.07,30.47-56.16,45.74-84.22c14.78-27.17,29.62-54.32,44.42-81.48
		c15.3-28.08,30.61-56.16,45.88-84.26c12.27-22.56,24.47-45.16,36.74-67.72c17.39-31.98,34.82-63.95,52.22-95.93
		c5.78-10.63,11.52-21.29,17.29-31.92c0.71-1.31,1.5-2.58,2.33-3.82c0.41-0.61,1.13-0.78,1.74-0.37
		C1086.48,193.6,1086.56,194.17,1086.72,194.5z"/>
	<path class="st2" d="M835.19,886.85c-1.79-0.54-1.07-1.57-0.49-2.63c2.45-4.49,4.87-9.01,7.31-13.5
		c25.38-46.67,50.76-93.34,76.15-140c27.33-50.21,54.67-100.41,82.02-150.61c24.25-44.49,48.55-88.96,72.79-133.46
		c25.88-47.51,51.72-95.04,77.57-142.56c0.24-0.43,0.35-0.95,0.65-1.33c0.76-0.96,1.29-2.96,2.82-1.97c1.63,1.05-0.12,2.3-0.69,3.34
		c-15,27.64-30.01,55.27-45.06,82.88c-17.26,31.68-34.57,63.34-51.83,95.03c-15.12,27.77-30.18,55.57-45.3,83.34
		c-23.99,44.08-48.02,88.14-72.01,132.22c-21.69,39.85-43.34,79.73-65.01,119.6c-12.1,22.27-24.19,44.55-36.31,66.82
		C837.22,885.13,836.82,886.54,835.19,886.85z"/>
	<path class="st2" d="M1134.96,376.27c-0.46,0.93-0.8,1.67-1.18,2.4c-33.23,64.12-66.48,128.23-99.68,192.36
		c-19.86,38.37-39.6,76.79-59.46,115.16c-28.85,55.72-57.77,111.41-86.65,167.11c-2.21,4.26-4.38,8.53-6.65,12.75
		c-0.5,0.94-1.16,2.42-2.58,1.55c-1.27-0.78,0-1.76,0.39-2.52c16.13-31.18,32.3-62.34,48.44-93.53
		c11.95-23.08,23.83-46.2,35.77-69.29c24.97-48.28,49.95-96.56,74.92-144.84c17.43-33.7,34.84-67.4,52.27-101.09
		c13.39-25.88,26.81-51.76,40.23-77.63c0.53-1.02,1.07-2.09,1.82-2.94C1133.6,374.66,1134.26,375.46,1134.96,376.27z"/>
	<path class="st2" d="M1042.53,213.4c-0.47,0.83-0.9,1.55-1.28,2.28c-13.73,26.45-27.49,52.87-41.17,79.34
		c-23.73,45.91-47.38,91.87-71.13,137.77c-17.96,34.71-36.05,69.36-54.01,104.07c-21.37,41.32-42.64,82.68-63.97,124.02
		c-6.9,13.38-13.85,26.73-20.78,40.1c-0.31,0.59-0.59,1.19-0.93,1.77c-0.57,0.99-1.18,2.47-2.5,1.82c-1.52-0.75-0.35-1.98,0.15-2.95
		c5.09-9.86,10.18-19.72,15.29-29.57c12.42-23.95,24.86-47.89,37.27-71.85c24.77-47.81,49.53-95.63,74.27-143.46
		c17.5-33.84,34.9-67.74,52.43-101.57c19.35-37.36,38.8-74.66,58.18-112.01c4.95-9.54,9.79-19.13,14.73-28.67
		c0.56-1.09,0.95-2.69,2.77-2.23C1042.17,212.35,1042.32,213.03,1042.53,213.4z"/>
	<path class="st2" d="M1073.96,896.23c-0.39-7.94,1.55-15.71,2.43-23.53c1.91-17,4.3-33.94,6.52-50.9
		c1.98-15.15,4.03-30.29,5.99-45.45c2.99-23.08,5.92-46.17,8.92-69.24c3.02-23.23,6.08-46.45,9.13-69.67
		c3.93-29.97,7.89-59.94,11.78-89.92c2.79-21.57,5.45-43.15,8.22-64.72c2.98-23.22,5.99-46.43,9.07-69.64
		c0.33-2.47,0.37-7.18,2.11-6.79c3.17,0.72,0.91,4.58,0.63,6.82c-2.67,21.25-6.12,42.42-8.45,63.7c-2.7,24.62-6.39,49.1-9.33,73.68
		c-3.17,26.56-6.93,53.05-10.37,79.57c-2.61,20.09-4.88,40.22-7.75,60.26c-2.33,16.27-4.21,32.61-6.55,48.88
		c-2.33,16.27-4.03,32.65-6.26,48.95c-2.32,16.94-4.16,33.93-6.74,50.84c-2.55,16.74-4.19,33.63-6.29,50.44
		c-0.29,2.34-0.96,4.64-1.45,6.96C1075.03,896.39,1074.49,896.31,1073.96,896.23z"/>
	<path class="st2" d="M847.01,187.05c-1.39,11.04-2.73,21.93-4.13,32.81c-2.27,17.62-4.52,35.24-6.87,52.85
		c-2.2,16.46-4.6,32.89-6.73,49.36c-2.16,16.63-3.99,33.31-6.16,49.94c-3.9,29.97-8,59.91-11.91,89.87
		c-3.46,26.51-6.75,53.04-10.13,79.56c-4.03,31.63-8.04,63.27-12.13,94.89c-1.51,11.69-3.26,23.34-4.87,35.01
		c-0.16,1.14,0.03,2.72-1.52,2.64c-2.07-0.1-1.4-1.86-1.23-3.08c3.49-26,7.09-51.99,10.49-78.01c2.8-21.4,5.28-42.84,8.07-64.24
		c3.93-30.12,8.09-60.22,12-90.35c3.47-26.69,6.69-53.41,10.11-80.1c2.93-22.9,5.99-45.78,9-68.67c3.27-24.85,6.58-49.7,9.82-74.56
		c1.2-9.23,2.21-18.48,3.48-27.7c0.17-1.24-0.13-3.64,1.86-3.47C847.91,183.98,846.67,186.06,847.01,187.05z"/>
	<path class="st2" d="M867.87,209.22c-2.08,12.61-4.02,24.73-6.08,36.83c-3.14,18.47-6.34,36.94-9.56,55.4
		c-3.96,22.71-8.06,45.39-11.91,68.12c-4.24,25.02-8.17,50.09-12.44,75.1c-4.44,25.99-9.2,51.93-13.66,77.91
		c-2.91,16.99-5.47,34.04-8.4,51.02c-0.33,1.94,0.18,5.89-2.68,5.34c-2.54-0.49-0.35-3.7-0.04-5.61
		c3.24-19.95,6.57-39.89,9.96-59.81c2.78-16.36,5.69-32.69,8.48-49.05c2.88-16.83,5.65-33.68,8.53-50.5
		c2.24-13.07,4.61-26.12,6.85-39.19c4-23.37,7.91-46.76,11.93-70.12c3.91-22.71,7.93-45.4,11.84-68.1c1.55-8.99,2.94-18,4.44-27
		c0.19-1.11,0.37-2.65,1.82-2.57C868.78,207.1,867.75,208.76,867.87,209.22z"/>
	<path class="st2" d="M1053.54,874.08c-1.37-5.06,0.31-8.87,0.94-12.66c3.92-23.38,8.24-46.7,12.2-70.07
		c4.26-25.17,8.15-50.41,12.44-75.58c4.4-25.82,9.2-51.57,13.62-77.39c3.86-22.55,7.37-45.15,11.19-67.71
		c2.8-16.51,5.86-32.98,8.78-49.47c1.07-6.02,2.07-12.06,3.12-18.09c0.19-1.07-0.05-2.71,1.72-2.35c1.69,0.34,0.97,1.73,0.75,2.85
		c-3.26,16.93-5.99,33.95-8.86,50.94c-2.79,16.5-5.62,33.01-8.33,49.54c-3.73,22.73-8.02,45.37-11.87,68.08
		c-4.24,25.01-8.14,50.08-12.39,75.08c-4.42,25.99-9.14,51.94-13.64,77.92c-2.46,14.21-4.74,28.46-7.09,42.69
		C1055.81,869.77,1055.44,871.65,1053.54,874.08z"/>
	<path class="st2" d="M924.98,840.64c-1.77-1.04-0.62-2.15-0.07-3.26c4.5-9.04,8.98-18.1,13.5-27.13
		c24.59-49.07,49.25-98.1,73.78-147.19c31.7-63.44,63.29-126.92,94.94-190.38c0.22-0.44,0.56-0.83,0.81-1.26
		c0.79-1.36,1.3-4.01,3.09-3.1c2,1.03-0.26,2.75-0.88,4.01c-14.7,29.63-29.44,59.24-44.21,88.84c-15,30.06-30.04,60.1-45.07,90.14
		c-17.55,35.07-35.11,70.13-52.65,105.2c-13.39,26.79-26.74,53.6-40.13,80.38C927.37,838.31,926.93,840.04,924.98,840.64z"/>
	<path class="st1" d="M938.06,947.41c-63.26-1.15-126.52-2.3-189.78-3.49c-1.14-0.02-3.28,0.84-3.27-0.97
		c0.01-2.21,2.29-1.29,3.59-1.27c37.29,0.6,74.59,1.31,111.88,1.88c38.46,0.59,76.92,0.94,115.38,1.57
		c50.61,0.83,101.21,1.83,151.81,2.75c0.83,0.02,1.67,0.01,2.5,0.05c0.86,0.04,1.81,0.19,1.59,1.31c-0.09,0.46-0.88,1.03-1.41,1.1
		c-1.31,0.17-2.65,0.1-3.98,0.08c-54.61-0.85-109.22-1.73-163.84-2.55c-8.15-0.12-16.3-0.02-24.46-0.02
		C938.06,947.7,938.06,947.55,938.06,947.41z"/>
	<path class="st1" d="M981.24,132.56c64.85,1.18,127.97,2.33,191.08,3.52c1.18,0.02,3.28-0.8,3.4,0.84
		c0.17,2.32-2.16,1.43-3.39,1.41c-37.14-0.58-74.28-1.29-111.41-1.85c-37.3-0.57-74.61-0.91-111.92-1.52
		c-52.12-0.86-104.24-1.87-156.36-2.87c-1.17-0.02-3.21,0.79-3.36-0.95c-0.2-2.39,2.07-1.55,3.34-1.53
		c38.64,0.67,77.27,1.43,115.91,2.1c20.32,0.35,40.64,0.59,60.96,0.85C973.99,132.61,978.48,132.56,981.24,132.56z"/>
	<path class="st1" d="M808.76,611.64c2.49-5.13,4.83-10.1,7.28-15.01c15.79-31.67,31.58-63.34,47.42-94.99
		c19.4-38.77,38.86-77.51,58.25-116.28c19.47-38.93,38.88-77.88,58.32-116.82c4.27-8.55,8.53-17.1,12.82-25.64
		c0.71-1.41,1.35-3.97,3.03-3.23c2.44,1.06,0.02,2.84-0.58,4.04c-27.71,55.55-55.48,111.08-83.27,166.59
		c-28.5,56.95-57.02,113.88-85.54,170.82c-4.75,9.49-9.58,18.94-14.32,28.42C811.59,610.71,811.35,612.11,808.76,611.64z"/>
	<path class="st2" d="M1098.88,534.48c-0.35,0.7-0.65,1.3-0.94,1.89c-23.77,48.24-47.56,96.46-71.29,144.72
		c-14.43,29.35-28.71,58.77-43.11,88.14c-10.78,22-21.64,43.96-32.46,65.94c-0.22,0.45-0.38,0.93-0.66,1.34
		c-0.62,0.9-1.06,2.5-2.47,1.79c-1.63-0.82-0.24-2.04,0.19-2.95c3.58-7.45,7.22-14.87,10.87-22.29
		c19.96-40.51,39.98-80.98,59.89-121.51c24.8-50.48,49.51-100.99,74.27-151.49c1.02-2.08,2.14-4.13,3.29-6.14
		c0.32-0.55,1-1,1.68-0.57C1098.51,533.58,1098.67,534.13,1098.88,534.48z"/>
	<path class="st2" d="M973.52,242.86c-0.89,1.73-1.74,3.34-2.54,4.98c-22.77,46.36-45.55,92.72-68.31,139.09
		c-16.55,33.72-33.08,67.46-49.63,101.18c-9.03,18.41-18.09,36.81-27.13,55.21c-0.29,0.6-0.58,1.2-0.89,1.78
		c-0.48,0.88-1.12,2.06-2.18,1.54c-1.54-0.75-0.46-1.93,0.02-2.92c4.89-9.95,9.76-19.9,14.65-29.85
		c14.46-29.39,28.92-58.78,43.38-88.17c18.13-36.84,36.27-73.67,54.37-110.52c11.37-23.15,22.68-46.34,34.05-69.5
		c0.65-1.32,1.46-2.56,2.31-3.76c0.19-0.27,0.97-0.38,1.28-0.21C973.23,241.88,973.33,242.48,973.52,242.86z"/>
	<path class="st2" d="M1079.36,931.49c-30.71-1.89-61.43-3.76-92.14-5.66c-20.89-1.3-41.79-2.61-62.68-3.97
		c-40.66-2.65-81.31-5.32-121.97-8.02c-1.33-0.09-3.54,0.52-3.3-1.79c0.19-1.81,2.16-1.13,3.35-1.05
		c17.43,1.06,34.86,2.16,52.29,3.3c27.91,1.82,55.81,3.71,83.72,5.5c28.04,1.8,56.1,3.49,84.14,5.25
		c20.73,1.3,41.45,2.62,62.18,3.96c2.98,0.19,5.95,0.58,8.93,0.9c0.78,0.08,1.83-0.09,1.93,1.05c0.12,1.39-1,1.59-2,1.54
		c-4.82-0.25-9.64-0.58-14.46-0.88C1079.36,931.57,1079.36,931.53,1079.36,931.49z"/>
	<path class="st2" d="M835.98,148.13c27.08,1.67,54.17,3.33,81.25,5.02c21.07,1.31,42.15,2.6,63.21,3.99
		c28.87,1.9,57.74,3.91,86.61,5.82c16.61,1.1,33.23,2.09,49.85,3.12c0.83,0.05,1.66,0.06,2.5,0.1c1.04,0.05,2.28,0.26,2.29,1.43
		c0.01,1.65-1.51,1.49-2.63,1.43c-7.31-0.4-14.62-0.82-21.93-1.3c-19.1-1.24-38.2-2.51-57.3-3.78c-32.57-2.17-65.14-4.39-97.71-6.53
		c-13.11-0.86-26.23-1.5-39.34-2.34c-19.08-1.23-38.14-2.61-57.22-3.81c-5.97-0.38-11.99-0.13-17.92-1.17
		c-1.02-0.18-2.73,0.44-2.5-1.42c0.19-1.56,1.74-1.19,2.86-1.13c2.66,0.14,5.32,0.32,7.98,0.48
		C835.98,148.07,835.98,148.1,835.98,148.13z"/>
	<path class="st2" d="M824.1,510.97c0.08-6.98,1.99-12.46,3.16-17.97c7.73-36.26,15.76-72.45,23.61-108.68
		c6.52-30.08,12.92-60.18,19.39-90.27c4.25-19.74,8.55-39.48,12.83-59.22c0.07-0.32,0.07-0.72,0.26-0.95
		c0.95-1.17,0.03-4.18,2.39-3.64c2.53,0.58,0.69,2.77,0.39,4.16c-6.3,28.79-12.93,57.5-18.95,86.35
		c-6.72,32.24-13.79,64.41-20.86,96.58c-6.29,28.6-12.26,57.27-18.42,85.9C827.41,505.56,827.29,508.16,824.1,510.97z"/>
	<path class="st2" d="M1034.06,848.34c3.01-14.04,5.76-26.99,8.57-39.92c4.42-20.39,8.85-40.77,13.34-61.14
		c3.88-17.61,7.95-35.17,11.75-52.8c5.58-25.91,10.97-51.85,16.47-77.78c2.95-13.93,5.96-27.84,8.96-41.76
		c0.21-0.97,0.59-1.9,0.85-2.86c0.27-1,0.62-2.15,1.84-1.88c1.67,0.37,1.06,1.77,0.82,2.85c-2.3,10.67-4.6,21.34-6.94,32
		c-3.55,16.18-7.15,32.34-10.71,48.52c-5.27,23.92-10.6,47.83-15.77,71.77c-4.23,19.59-8.25,39.22-12.42,58.82
		c-4.34,20.41-8.76,40.81-13.15,61.21c-0.17,0.81-0.46,1.6-0.69,2.4c-0.33,1.14-0.66,2.5-2.22,2.02
		C1033.51,849.39,1034.07,848.13,1034.06,848.34z"/>
	<path class="st2" d="M1060.84,187.92c-22.31-2.39-44.13-4.75-65.96-7.06c-15.53-1.64-31.08-3.16-46.62-4.82
		c-17.8-1.9-35.58-3.93-53.37-5.84c-13.04-1.4-26.09-2.68-39.13-4.04c-1.25-0.13-3.28,0.22-3.19-1.51c0.1-2.15,2.18-1.48,3.56-1.33
		c25.47,2.81,50.92,5.73,76.39,8.45c17.81,1.9,35.66,3.47,53.48,5.32c24.76,2.57,49.51,5.28,74.27,7.92
		c0.17,0.02,0.33,0.03,0.5,0.06c1.25,0.19,3.16-0.08,2.93,1.77C1063.46,188.65,1061.58,187.84,1060.84,187.92z"/>
	<path class="st2" d="M842.7,477.17c-2.07-1.18-0.47-2.5,0.07-3.63c4.41-9.27,8.86-18.52,13.32-27.76
		c25.93-53.69,51.87-107.37,77.81-161.06c2.52-5.21,4.98-10.45,7.57-15.63c0.53-1.05,1.14-2.94,2.83-1.82
		c1.41,0.93-0.17,2.11-0.59,2.99c-13.39,27.73-26.9,55.4-40.28,83.12c-17.78,36.81-35.47,73.66-53.19,110.5
		c-1.73,3.59-3.41,7.2-5.11,10.8C844.63,475.72,844.17,476.81,842.7,477.17z"/>
	<path class="st2" d="M860.13,892.12c28.95,3.09,57.4,6.14,85.85,9.14c18.31,1.93,36.64,3.74,54.95,5.66
		c17.82,1.88,35.63,3.84,53.44,5.76c3.63,0.39,7.27,0.77,10.9,1.2c1.22,0.14,3.14-0.25,2.76,1.8c-0.34,1.85-2.15,1.12-3.36,0.99
		c-13.23-1.42-26.46-2.93-39.69-4.33c-23.46-2.48-46.94-4.89-70.4-7.37c-31.36-3.31-62.72-6.66-94.07-10.04
		c-1.3-0.14-3.56,0.45-3.24-1.89C857.51,891.24,859.44,892.25,860.13,892.12z"/>
	<path class="st2" d="M977.39,813.07c-0.32-0.07-0.73-0.03-0.91-0.22c-0.77-0.77-0.16-1.39,0.21-2.15
		c2.33-4.77,4.56-9.59,6.86-14.37c17.23-35.81,34.43-71.62,51.71-107.41c13.39-27.75,26.88-55.45,40.32-83.18
		c0.64-1.32,1.24-3.52,2.89-2.62c1.81,0.99-0.14,2.69-0.7,3.85c-28.61,59.33-57.3,118.62-85.96,177.92
		c-4.03,8.35-7.98,16.74-12.03,25.08C979.21,811.14,978.72,812.45,977.39,813.07z"/>
	<path class="st2" d="M848.32,433.03c-1.98-0.85-1.02-2.1-0.68-3.32c3.44-12.26,6.88-24.51,10.25-36.79
		c9.06-32.99,18.09-65.99,27.14-98.98c3.63-13.24,7.26-26.48,10.95-39.7c0.36-1.28,0.44-3.64,2.41-2.98
		c1.9,0.64,0.51,2.51,0.14,3.83c-9.19,33.45-18.39,66.9-27.57,100.36c-6.73,24.52-13.4,49.06-20.16,73.58
		C850.4,430.52,850.19,432.36,848.32,433.03z"/>
	<path class="st2" d="M1022.9,828.96c-2.28-0.42-1.39-1.8-1.05-3.03c5.69-20.37,11.44-40.72,17.06-61.11
		c10.37-37.59,20.66-75.21,30.98-112.82c0.22-0.8,0.23-1.69,0.62-2.39c0.55-1.01,0.4-3.15,2.4-2.36c1.58,0.63,0.47,2,0.2,3.02
		c-2.8,10.38-5.58,20.77-8.44,31.14c-6.86,24.86-13.8,49.7-20.65,74.55c-6.37,23.09-12.67,46.21-19.04,69.3
		C1024.61,826.63,1024.45,828.24,1022.9,828.96z"/>
	<path class="st2" d="M857.21,189.92c1.2-2.17,3.01-1.14,4.5-0.93c32.32,4.6,64.63,9.27,96.94,13.9c16.3,2.34,32.61,4.64,48.91,6.95
		c0.66,0.09,1.34,0.09,1.98,0.26c1.32,0.35,3.57-0.01,3.15,2.13c-0.31,1.61-2.28,0.87-3.46,0.73c-4.93-0.58-9.84-1.3-14.74-2.01
		c-26.95-3.91-53.9-7.86-80.86-11.73c-17.21-2.47-34.44-4.79-51.65-7.31C860.35,191.69,858.32,191.71,857.21,189.92z"/>
	<path class="st2" d="M1061.91,891.35c-14.62-2.05-27.76-3.86-40.88-5.73c-17.84-2.54-35.68-5.14-53.52-7.69
		c-18.75-2.68-37.5-5.32-56.25-8.01c-1.25-0.18-3.25-0.14-3.09-1.77c0.22-2.25,2.41-1.24,3.61-1.06
		c35.61,5.13,71.21,10.39,106.82,15.54c13.08,1.89,26.2,3.55,39.3,5.34c0.98,0.13,1.99,0.28,2.89,0.66c0.94,0.39,2.81-0.1,2.52,1.65
		C1063.05,891.83,1061.53,891.32,1061.91,891.35z"/>
	<path class="st2" d="M859.64,420.33c-2.29-0.94-0.71-2.21-0.26-3.18c5.67-12.15,11.35-24.28,17.1-36.39
		c14.41-30.31,28.82-60.62,43.35-90.88c1.05-2.19,1.69-6.79,4.15-5.64c2.36,1.1-0.96,4.43-1.95,6.53
		c-19.77,41.93-39.7,83.79-59.6,125.66C861.74,417.89,861.37,419.61,859.64,420.33z"/>
	<path class="st2" d="M995.62,795.67c21.58-45.44,43.16-90.89,64.74-136.33c0.73,0.35,1.46,0.69,2.18,1.04
		c-21.44,45.51-42.91,91.01-64.82,136.3C997.03,796.34,996.32,796.01,995.62,795.67z"/>
	<path class="st2" d="M878.22,207.3c3.36-1.35,6.01,0.29,8.59,0.87c28.7,6.39,57.36,12.97,86.03,19.5c0.81,0.18,1.66,0.24,2.44,0.51
		c0.94,0.33,2.05,0.81,1.62,2.06c-0.43,1.24-1.61,0.84-2.54,0.64c-6.11-1.36-12.21-2.75-18.32-4.14
		c-24.49-5.56-48.97-11.12-73.46-16.69C881.03,209.67,879.3,209.53,878.22,207.3z"/>
	<path class="st2" d="M945.1,848.97c9.98,2.22,19.33,4.27,28.66,6.38c21.46,4.85,42.9,9.73,64.35,14.61
		c0.64,0.15,1.31,0.27,1.9,0.55c0.83,0.4,2.33,0.41,2.07,1.7c-0.32,1.62-1.71,1.14-2.85,0.88c-7.29-1.67-14.57-3.36-21.87-5.01
		c-23.03-5.22-46.07-10.43-69.11-15.65c-1.13-0.26-2.3-0.44-3.36-0.9c-0.48-0.21-1-0.99-0.99-1.5
		C943.94,848.9,944.93,848.97,945.1,848.97z"/>
	<path class="st2" d="M1016.05,809.98c-1.94-1.07-0.56-2.27-0.18-3.36c5.02-14.18,10.07-28.35,15.08-42.53
		c5.51-15.59,10.99-31.18,16.49-46.77c0.28-0.78,0.41-1.63,0.78-2.36c0.44-0.86,1.04-2.06,2.18-1.5c1.03,0.51,0.61,1.66,0.26,2.63
		c-2.25,6.22-4.47,12.44-6.67,18.67c-8.35,23.67-16.69,47.35-25.06,71.01C1018.37,807.4,1018.34,809.47,1016.05,809.98z"/>
	<path class="st2" d="M870.82,366.79c-1.32-0.88-1.03-1.85-0.7-2.79c9.72-27.5,19.45-55,29.17-82.5c1.1-3.1,2.12-6.23,3.28-9.31
		c0.38-1.01,0.71-2.55,2.29-2.03c1.85,0.61,0.62,1.84,0.27,2.82c-10.66,30.14-21.33,60.28-31.96,90.42
		C872.66,364.84,872.19,366.15,870.82,366.79z"/>
	<path class="st2" d="M1023.03,847.9c-5.34,0-9.77-1.89-14.32-2.97c-12.85-3.03-25.67-6.23-38.46-9.49
		c-1.33-0.34-4.12-0.12-3.28-2.58c0.7-2.06,2.54-0.28,3.83,0.04c16.09,3.96,32.17,7.96,48.25,11.94
		C1020.47,845.19,1021.97,845.38,1023.03,847.9z"/>
	<path class="st2" d="M954.08,246.79c-0.58,1.79-1.74,1.01-3.08,0.67c-12.85-3.28-25.72-6.47-38.59-9.67
		c-3.85-0.96-7.73-1.78-11.55-2.83c-1.13-0.31-3.11-0.55-2.45-2.36c0.43-1.18,2.02-0.63,3.14-0.35c12.46,3.11,24.91,6.22,37.37,9.34
		c4.18,1.05,8.36,2.09,12.53,3.19C952.52,245.06,953.87,245.07,954.08,246.79z"/>
	<path class="st2" d="M907.35,298.08c1.46,2.03,0.19,3.34-0.37,4.58c-4.88,10.62-9.88,21.19-14.84,31.78
		c-0.35,0.75-0.73,1.48-1.12,2.2c-0.49,0.92-1.18,1.91-2.27,1.31c-1.25-0.69-0.3-1.68,0.1-2.54c2.43-5.25,4.84-10.5,7.27-15.75
		c2.64-5.7,5.27-11.41,7.97-17.09C904.83,300.99,905.35,299.18,907.35,298.08z"/>
	<path class="st2" d="M1013.44,781.63c-1.58-1.76-0.04-3.18,0.56-4.5c4.91-10.79,9.93-21.54,14.96-32.27
		c0.58-1.24,1.02-3.5,2.81-2.74c2.2,0.94,0.14,2.58-0.35,3.65c-4.84,10.64-9.79,21.23-14.8,31.79
		C1015.9,779.08,1015.59,781.1,1013.44,781.63z"/>
	<path class="st2" d="M909.25,253.14c2.09,1.12,4.13,2.19,6.15,3.31c4.93,2.74,9.85,5.49,14.75,8.28c0.97,0.55,2.37,1.17,1.51,2.59
		c-0.77,1.27-1.81,0.09-2.55-0.31c-6.55-3.58-13.06-7.23-19.58-10.86c-0.88-0.49-1.82-1-1.69-2.2
		C907.92,253.12,908.59,252.99,909.25,253.14z"/>
	<path class="st2" d="M989.93,812.1c0.47,0.22,0.77,0.33,1.05,0.49c6.95,3.86,13.89,7.72,20.83,11.61c0.74,0.42,1.47,1.18,1.07,2.01
		c-0.64,1.34-1.6,0.5-2.44,0.04c-6.64-3.69-13.29-7.37-19.94-11.06c-0.87-0.49-1.84-0.99-1.46-2.23
		C989.15,812.59,989.66,812.35,989.93,812.1z"/>
	<path class="st1" d="M1007.46,810.74c-3.73-1.27-5.72-4.49-8.24-7.06c-0.51-0.52-0.36-1.43,0.29-1.65
		c0.47-0.16,1.35,0.17,1.72,0.57C1003.55,805.09,1006.37,807.17,1007.46,810.74z"/>
	<path class="st1" d="M913.35,269.33c3.61,1.16,5.5,4.28,8.06,6.61c0.49,0.45,0.78,1.16,0.24,1.73c-0.74,0.78-1.56,0.38-2.1-0.26
		C917.36,274.83,914.54,272.78,913.35,269.33z"/>
</g>
</svg>
